<svg fill="none" height="17" viewBox="0 0 17 17" width="17" xmlns="http://www.w3.org/2000/svg">
    <path
        d="M8.875 0.875C7.29275 0.875 5.74603 1.34419 4.43044 2.22324C3.11485 3.10229 2.08947 4.35172 1.48397 5.81353C0.878466 7.27534 0.72004 8.88387 1.02872 10.4357C1.3374 11.9876 2.09933 13.413 3.21815 14.5319C4.33697 15.6507 5.76243 16.4126 7.31428 16.7213C8.86613 17.03 10.4747 16.8715 11.9365 16.266C13.3983 15.6605 14.6477 14.6352 15.5268 13.3196C16.4058 12.004 16.875 10.4572 16.875 8.875C16.8728 6.75395 16.0292 4.72042 14.5294 3.22062C13.0296 1.72081 10.996 0.87724 8.875 0.875ZM8.875 15.6442C7.53617 15.6442 6.22741 15.2472 5.11422 14.5034C4.00103 13.7596 3.1334 12.7024 2.62105 11.4655C2.1087 10.2286 1.97465 8.86749 2.23584 7.55439C2.49703 6.24129 3.14174 5.03512 4.08843 4.08843C5.03513 3.14174 6.24129 2.49703 7.55439 2.23584C8.86749 1.97465 10.2286 2.1087 11.4655 2.62105C12.7024 3.13339 13.7596 4.00102 14.5034 5.11422C15.2472 6.22741 15.6442 7.53617 15.6442 8.875C15.6422 10.6697 14.9284 12.3903 13.6593 13.6593C12.3903 14.9284 10.6697 15.6422 8.875 15.6442ZM10.1058 12.5673C10.1058 12.7305 10.0409 12.887 9.92553 13.0024C9.81012 13.1179 9.6536 13.1827 9.49039 13.1827C9.16397 13.1827 8.85092 13.053 8.6201 12.8222C8.38929 12.5914 8.25962 12.2783 8.25962 11.9519V8.875C8.09641 8.875 7.93988 8.81016 7.82447 8.69476C7.70907 8.57935 7.64423 8.42282 7.64423 8.25961C7.64423 8.0964 7.70907 7.93988 7.82447 7.82447C7.93988 7.70906 8.09641 7.64423 8.25962 7.64423C8.58604 7.64423 8.89909 7.7739 9.1299 8.00471C9.36072 8.23553 9.49039 8.54858 9.49039 8.875V11.9519C9.6536 11.9519 9.81012 12.0168 9.92553 12.1322C10.0409 12.2476 10.1058 12.4041 10.1058 12.5673ZM7.64423 5.49038C7.64423 5.30782 7.69837 5.12935 7.7998 4.97755C7.90123 4.82575 8.04539 4.70744 8.21406 4.63757C8.38273 4.56771 8.56833 4.54943 8.74739 4.58504C8.92645 4.62066 9.09093 4.70858 9.22002 4.83767C9.34912 4.96676 9.43703 5.13124 9.47265 5.3103C9.50827 5.48936 9.48999 5.67496 9.42012 5.84363C9.35025 6.0123 9.23194 6.15646 9.08014 6.25789C8.92834 6.35932 8.74988 6.41346 8.56731 6.41346C8.32249 6.41346 8.08771 6.31621 7.91459 6.1431C7.74148 5.96999 7.64423 5.7352 7.64423 5.49038Z"
        fill="#F56342" />
</svg>
